<?xml version="1.0" encoding="utf-8"?>
<!-- Generator: Adobe Illustrator 27.0.0, SVG Export Plug-In . SVG Version: 6.00 Build 0)  -->
<svg version="1.1" id="图层_1" xmlns="http://www.w3.org/2000/svg" xmlns:xlink="http://www.w3.org/1999/xlink" x="0px" y="0px"
	 viewBox="0 0 595.3 841.9" style="enable-background:new 0 0 595.3 841.9;" xml:space="preserve">
<style type="text/css">
	.st0{fill:#F0ECEC;}
	.st1{fill:#B1AFA0;}
</style>
<g>
	<g>
		<g>
			<path class="st0" d="M408.2,334.8l-191.8,46.8c10.7,56.4,67.5,92.2,121.8,78.3C391.7,446.3,424.4,389,408.2,334.8z"/>
		</g>
	</g>
</g>
<path class="st1" d="M373,289.5c-28.9,4.8-60.4,12.6-92.1,23.3c-22.2,7.5-42.6,15.8-60.6,24.4 M220.2,337.2
	c-61.6,29.5-95.4,63.2-79.3,83.7c20.8,26.6,117.1,21.2,215.2-11.9s160.7-81.6,139.9-108.2c-14.1-18-62.7-21.4-123.1-11.4
	 M326.1,386.9c-52.4,13.9-101.1,12.5-108.9-3.1s28.4-39.5,80.8-53.4s101.1-12.5,108.9,3.1S378.5,373,326.1,386.9z"/>
<g>
	<g>
		<g>
			<path class="st0" d="M284.1,254.5c-52.5,14.2-84.9,72.2-67.6,127.1L407.5,335C397.1,276.4,338.3,239.8,284.1,254.5z"/>
		</g>
	</g>
</g>
<ellipse transform="matrix(0.9674 -0.2534 0.2534 0.9674 -80.8472 90.9495)" class="st0" cx="312.6" cy="359.3" rx="98" ry="32.2"/>
</svg>
